<?xml version="1.0" standalone="no"?>
<!DOCTYPE svg PUBLIC "-//W3C//DTD SVG 20010904//EN"
 "http://www.w3.org/TR/2001/REC-SVG-20010904/DTD/svg10.dtd">
<svg version="1.0" xmlns="http://www.w3.org/2000/svg"
 width="1200.000000pt" height="1200.000000pt" viewBox="0 0 1200.000000 1200.000000"
 preserveAspectRatio="xMidYMid meet">
<metadata>
Created by potrace 1.14, written by Peter Selinger 2001-2017
</metadata>
<g transform="translate(0.000000,1200.000000) scale(0.100000,-0.100000)"
fill="#000000" stroke="none">
<path d="M0 6000 l0 -6000 6000 0 6000 0 0 6000 0 6000 -6000 0 -6000 0 0
-6000z m6723 3448 c324 -155 387 -575 123 -817 -65 -59 -183 -112 -263 -119
l-63 -5 0 102 0 101 38 0 c84 0 192 83 235 178 27 63 26 162 -3 230 -25 59
-99 132 -156 158 -60 26 -178 23 -236 -5 -62 -29 -118 -86 -148 -147 -22 -43
-24 -61 -23 -154 1 -129 26 -230 83 -339 39 -75 102 -158 288 -378 298 -351
412 -699 412 -1254 l0 -179 -94 0 -93 0 -7 193 c-22 596 -102 809 -472 1236
-230 268 -301 425 -311 692 -6 152 6 213 58 306 37 64 140 162 205 193 92 43
124 50 239 47 104 -2 114 -4 188 -39z m-2200 -72 c18 -7 46 -29 63 -47 17 -19
141 -245 276 -504 135 -258 317 -605 404 -770 86 -165 328 -624 536 -1020
l378 -720 -28 -7 c-278 -70 -368 -88 -375 -76 -4 7 -134 254 -288 548 -326
622 -613 1168 -975 1855 -241 459 -258 494 -262 551 -5 80 21 133 85 175 53
33 129 39 186 15z m3691 -291 c233 -61 377 -248 377 -491 0 -286 -126 -481
-496 -769 -350 -272 -469 -400 -570 -610 -65 -135 -115 -357 -115 -512 l0 -73
-102 0 -101 0 6 115 c15 262 92 511 215 700 109 169 241 300 514 511 349 270
449 409 452 629 1 80 -2 97 -27 147 -138 282 -559 188 -559 -124 0 -128 72
-234 190 -278 29 -11 64 -20 77 -20 25 0 25 0 25 -100 l0 -100 -28 0 c-46 0
-138 28 -204 61 -114 58 -218 191 -247 319 -30 129 -3 280 70 389 114 171 331
256 523 206z m-4471 -110 c21 -10 49 -32 61 -49 13 -17 100 -177 194 -356 93
-179 216 -413 272 -520 227 -432 543 -1034 716 -1365 l184 -350 -43 -6 c-23
-4 -82 -12 -132 -19 -49 -7 -121 -21 -159 -32 -38 -10 -72 -15 -76 -11 -4 4
-117 220 -253 478 -246 472 -289 554 -595 1135 -457 870 -452 859 -452 923 0
64 14 98 57 139 62 59 146 72 226 33z m4378 -2669 c362 -79 660 -380 745 -751
26 -111 25 -341 -2 -440 l-19 -69 -100 -33 c-117 -38 -140 -41 -130 -15 62
145 70 184 70 337 0 129 -3 160 -23 225 -94 298 -332 512 -624 560 -193 31
-403 -11 -553 -109 l-60 -40 -30 23 c-16 13 -54 40 -83 61 l-53 38 48 34 c150
107 301 171 455 193 84 12 277 4 359 -14z m-2617 -200 c156 -32 330 -103 484
-199 l53 -34 -48 -18 c-26 -10 -74 -31 -106 -48 l-57 -30 -100 47 c-155 73
-264 98 -455 103 -124 4 -180 1 -250 -12 -323 -60 -603 -246 -785 -522 -65
-99 -137 -258 -155 -341 -4 -19 -12 -32 -18 -29 -7 2 -49 16 -94 31 -46 15
-83 29 -83 31 0 1 9 33 20 69 93 300 288 563 547 736 175 118 360 193 558 225
113 18 377 13 489 -9z m1196 -1 c349 -76 665 -289 859 -580 135 -202 201 -382
236 -646 7 -56 8 -55 -107 -65 l-84 -6 -12 88 c-26 194 -83 349 -190 509 -80
122 -208 251 -322 327 -213 141 -404 198 -659 198 l-136 0 -50 41 c-28 23 -74
58 -103 77 -51 34 -53 36 -30 45 102 38 446 45 598 12z m1350 -190 c356 -94
542 -484 390 -820 -29 -65 -97 -156 -133 -179 -12 -8 -84 -25 -160 -37 -111
-18 -140 -20 -147 -9 -4 7 -11 44 -15 83 -8 89 -54 270 -90 362 -65 163 -173
344 -273 459 l-52 59 37 23 c34 21 126 55 178 67 47 11 214 6 265 -8z m-1417
-201 c347 -79 632 -346 731 -686 13 -46 27 -110 31 -143 4 -33 9 -68 11 -77 5
-18 -11 -21 -137 -32 l-57 -4 -7 56 c-31 270 -193 505 -430 624 -126 64 -203
82 -350 82 -105 0 -145 -4 -208 -22 -311 -89 -533 -340 -579 -656 l-12 -84
-55 4 c-31 3 -76 7 -99 10 l-44 5 7 52 c4 29 15 89 26 135 92 401 437 704 859
756 64 8 239 -4 313 -20z m-1483 -26 c-18 -24 -52 -73 -76 -110 -40 -61 -48
-67 -100 -84 -83 -26 -214 -109 -291 -184 -104 -102 -176 -226 -218 -377 -3
-8 -29 -6 -97 9 -51 11 -95 21 -96 23 -7 7 31 122 62 190 106 228 287 404 518
502 92 38 219 71 286 72 l44 1 -32 -42z m384 1 c119 -35 117 -30 39 -113 -190
-200 -306 -445 -330 -698 l-6 -70 -84 6 c-120 10 -116 8 -108 80 16 148 60
304 125 443 73 156 231 373 272 373 12 0 53 -9 92 -21z m-1652 -121 c-43 -70
-112 -217 -142 -305 l-32 -93 -30 18 c-46 27 -107 92 -118 128 -18 53 23 109
132 183 43 29 183 98 201 100 5 1 0 -14 -11 -31z m5262 -68 c72 -45 132 -107
142 -144 8 -32 -15 -73 -68 -123 -43 -39 -136 -99 -142 -92 -2 2 1 33 6 69 10
66 5 281 -7 313 -10 24 -2 22 69 -23z m-2585 -175 c158 -38 315 -162 384 -305
40 -81 67 -174 67 -227 l0 -33 -99 0 -98 0 -5 50 c-11 114 -109 243 -226 298
-50 24 -69 27 -162 27 -93 0 -112 -3 -162 -27 -117 -55 -214 -180 -225 -293
l-6 -55 -98 0 -99 0 0 33 c0 17 7 61 15 96 48 202 231 387 431 435 78 19 204
19 283 1z m-1670 -190 c-15 -60 -31 -145 -35 -188 -3 -42 -11 -80 -16 -83 -5
-3 -47 0 -94 7 -84 12 -85 13 -79 38 12 53 74 168 116 217 39 44 130 127 135
121 1 -1 -11 -51 -27 -112z m-1095 -219 c398 -170 1021 -285 1866 -342 316
-22 1156 -25 1440 -6 590 41 887 77 1270 153 374 75 687 177 841 275 23 14 42
24 44 22 2 -2 -10 -53 -25 -115 -55 -213 -147 -408 -280 -599 -80 -114 -297
-329 -420 -417 -177 -125 -444 -242 -656 -286 -195 -40 -303 -43 -1544 -38
-1273 4 -1228 2 -1444 57 -454 114 -866 433 -1104 855 -80 141 -170 380 -188
500 l-6 46 52 -31 c29 -17 98 -51 154 -74z m2679 23 c68 -18 126 -83 142 -156
l7 -33 -202 0 -202 0 7 33 c16 71 66 129 131 152 48 17 68 18 117 4z"/>
<path d="M8696 4637 c-147 -251 -393 -463 -662 -572 -174 -70 -345 -104 -526
-105 l-98 0 0 -102 0 -101 143 6 c560 23 1055 319 1330 799 l27 46 -89 46 -89
46 -36 -63z"/>
<path d="M3997 4623 c-3 -4 -15 -41 -27 -82 -12 -40 -24 -79 -26 -86 -3 -8 27
-21 91 -39 53 -15 98 -26 99 -24 11 15 46 181 40 187 -5 4 -40 16 -79 26 -38
10 -75 20 -81 22 -7 2 -14 1 -17 -4z"/>
<path d="M4355 4453 c-9 -43 -18 -85 -21 -94 -4 -13 11 -19 78 -33 46 -9 91
-16 100 -16 17 0 28 36 43 141 l7 46 -84 16 c-45 10 -88 17 -94 17 -7 0 -20
-35 -29 -77z"/>
<path d="M4755 4456 c-5 -15 -25 -151 -25 -169 0 -10 22 -18 75 -26 129 -19
120 -25 133 81 6 51 10 93 9 95 -2 1 -45 9 -96 16 -66 10 -94 11 -96 3z"/>
<path d="M7017 3953 c-4 -3 -7 -48 -7 -100 l0 -93 100 0 100 0 0 100 0 100
-93 0 c-52 0 -97 -3 -100 -7z"/>
</g>
</svg>
